<?xml version="1.0" standalone="no"?>
<!DOCTYPE svg PUBLIC "-//W3C//DTD SVG 20010904//EN"
 "http://www.w3.org/TR/2001/REC-SVG-20010904/DTD/svg10.dtd">
<svg version="1.0" xmlns="http://www.w3.org/2000/svg"
 width="700.000000pt" height="700.000000pt" viewBox="0 0 700.000000 700.000000"
 preserveAspectRatio="xMidYMid meet">
<metadata>
Created by potrace 1.11, written by Peter Selinger 2001-2013
</metadata>
<g transform="translate(0.000000,700.000000) scale(0.100000,-0.100000)"
fill="#000000" stroke="none">
<path d="M3278 6995 c-2 -1 -41 -6 -88 -9 -47 -4 -96 -8 -110 -10 -26 -4 -107
-16 -150 -21 -14 -2 -70 -13 -125 -25 -55 -11 -111 -23 -125 -26 -60 -12 -254
-70 -350 -104 -298 -108 -595 -260 -812 -415 -31 -22 -66 -47 -78 -55 -153
-103 -409 -338 -578 -530 -432 -492 -733 -1143 -826 -1790 -11 -79 -18 -133
-25 -207 -11 -101 -11 -529 -1 -613 5 -36 11 -90 14 -121 4 -31 8 -66 11 -77
2 -11 6 -37 9 -58 14 -89 20 -116 57 -269 187 -779 653 -1483 1304 -1970 441
-331 989 -565 1520 -649 100 -16 118 -18 250 -33 139 -16 733 -6 765 12 3 1
28 5 55 9 104 13 247 41 385 77 1241 321 2220 1313 2520 2551 74 308 98 514
97 833 0 230 -7 329 -32 500 -1 11 -6 43 -10 70 -24 176 -125 547 -190 700 -8
17 -32 75 -55 130 -267 638 -784 1229 -1400 1602 -103 62 -311 170 -400 208
-36 15 -80 34 -99 42 -173 76 -529 175 -751 209 -25 3 -53 8 -64 10 -17 3 -63
9 -166 20 -50 6 -546 14 -552 9z"/>
</g>
</svg>
